<?xml version="1.0" encoding="utf-8" ?>
<svg baseProfile="tiny" height="100%" version="1.2" width="100%" xmlns="http://www.w3.org/2000/svg" xmlns:ev="http://www.w3.org/2001/xml-events" xmlns:xlink="http://www.w3.org/1999/xlink"><defs /><rect fill="rgb(159, 114, 60)" height="6mm" rx="2" ry="2" stroke="rgb(233, 185, 128)" stroke-width="1" width="6.41mm" x="50.141mm" y="47.0mm" /><text fill="white" font-family="Century Gothic" text-anchor="middle" x="53.346mm" y="51.078mm">/</text><text fill="black" font-family="Century Gothic" x="59.051mm" y="51.078mm">The root of the HDF5 file</text><line stroke="rgb(67,67,67)" x1="53.346mm" x2="53.346mm" y1="53.142mm" y2="58.0mm" /><line stroke="rgb(67,67,67)" x1="53.205mm" x2="54.805mm" y1="57.859mm" y2="57.859mm" /><rect fill="rgb(210,131,37)" height="6mm" rx="2" ry="2" stroke="rgb(233, 185, 128)" stroke-width="1" width="22.484mm" x="54.946mm" y="54.859mm" /><text fill="white" font-family="Century Gothic" text-anchor="middle" x="66.188mm" y="58.937mm">cxi_version</text><text fill="black" font-family="Century Gothic" x="79.93mm" y="58.937mm">140 (int equivalent of 1.40)</text><line stroke="rgb(67,67,67)" x1="53.346mm" x2="53.346mm" y1="53.142mm" y2="65.859mm" /><line stroke="rgb(67,67,67)" x1="53.205mm" x2="54.805mm" y1="65.718mm" y2="65.718mm" /><rect fill="rgb(29,97,134)" height="6mm" rx="2" ry="2" stroke="rgb(112,166,195)" stroke-width="1" width="16.844mm" x="54.946mm" y="62.718mm" /><text fill="white" font-family="Century Gothic" text-anchor="middle" x="63.368mm" y="66.796mm">entry_1</text><text fill="black" font-family="Century Gothic" x="74.29mm" y="66.796mm">The first experiment of the file</text><line stroke="rgb(67,67,67)" x1="63.368mm" x2="63.368mm" y1="68.86mm" y2="73.718mm" /><line stroke="rgb(67,67,67)" x1="63.227mm" x2="64.827mm" y1="73.577mm" y2="73.577mm" /><rect fill="rgb(210,131,37)" height="6mm" rx="2" ry="2" stroke="rgb(233, 185, 128)" stroke-width="1" width="39.404mm" x="64.968mm" y="70.577mm" /><text fill="white" font-family="Century Gothic" text-anchor="middle" x="84.67mm" y="74.655mm">experiment_identifier</text><text fill="black" font-family="Century Gothic" x="106.872mm" y="74.655mm">LCLS_CXI_15234</text><line stroke="rgb(67,67,67)" x1="63.368mm" x2="63.368mm" y1="68.86mm" y2="81.577mm" /><line stroke="rgb(67,67,67)" x1="63.227mm" x2="64.827mm" y1="81.436mm" y2="81.436mm" /><rect fill="rgb(29,97,134)" height="6mm" rx="2" ry="2" stroke="rgb(112,166,195)" stroke-width="1" width="20.51mm" x="64.968mm" y="78.436mm" /><text fill="white" font-family="Century Gothic" text-anchor="middle" x="75.223mm" y="82.514mm">sample_1</text><line stroke="rgb(67,67,67)" x1="75.223mm" x2="75.223mm" y1="84.578mm" y2="89.436mm" /><line stroke="rgb(67,67,67)" x1="75.082mm" x2="76.682mm" y1="89.295mm" y2="89.295mm" /><rect fill="rgb(210,131,37)" height="6mm" rx="2" ry="2" stroke="rgb(233, 185, 128)" stroke-width="1" width="14.87mm" x="76.823mm" y="86.295mm" /><text fill="white" font-family="Century Gothic" text-anchor="middle" x="84.258mm" y="90.373mm">name</text><text fill="black" font-family="Century Gothic" x="94.193mm" y="90.373mm">"Latex spheres"</text><line stroke="rgb(67,67,67)" x1="63.368mm" x2="63.368mm" y1="68.86mm" y2="97.295mm" /><line stroke="rgb(67,67,67)" x1="63.227mm" x2="64.827mm" y1="97.154mm" y2="97.154mm" /><rect fill="rgb(233,167,89)" height="6mm" rx="2" ry="2" stroke="rgb(233,185,128)" stroke-width="1" width="16.562mm" x="64.968mm" y="94.154mm" /><text fill="white" font-family="Century Gothic" text-anchor="middle" x="73.249mm" y="98.232mm">data_1</text><text fill="black" font-family="Century Gothic" x="84.03mm" y="98.232mm">Link to <tspan fill="rgb(29,97,134)" font-family="Courier" font-weight="bold">instrument_1/detector_1</tspan></text><line stroke="rgb(67,67,67)" x1="63.368mm" x2="63.368mm" y1="68.86mm" y2="105.154mm" /><line stroke="rgb(67,67,67)" x1="63.227mm" x2="64.827mm" y1="105.013mm" y2="105.013mm" /><rect fill="rgb(29,97,134)" height="6mm" rx="2" ry="2" stroke="rgb(112,166,195)" stroke-width="1" width="25.304mm" x="64.968mm" y="102.013mm" /><text fill="white" font-family="Century Gothic" text-anchor="middle" x="77.62mm" y="106.091mm">instrument_1</text><line stroke="rgb(67,67,67)" x1="77.62mm" x2="77.62mm" y1="108.155mm" y2="113.013mm" /><line stroke="rgb(67,67,67)" x1="77.479mm" x2="79.079mm" y1="112.872mm" y2="112.872mm" /><rect fill="rgb(210,131,37)" height="6mm" rx="2" ry="2" stroke="rgb(233, 185, 128)" stroke-width="1" width="14.87mm" x="79.22mm" y="109.872mm" /><text fill="white" font-family="Century Gothic" text-anchor="middle" x="86.655mm" y="113.95mm">name</text><text fill="black" font-family="Century Gothic" x="96.59mm" y="113.95mm">"CXI"</text><line stroke="rgb(67,67,67)" x1="77.62mm" x2="77.62mm" y1="108.155mm" y2="120.872mm" /><line stroke="rgb(67,67,67)" x1="77.479mm" x2="79.079mm" y1="120.731mm" y2="120.731mm" /><rect fill="rgb(29,97,134)" height="6mm" rx="2" ry="2" stroke="rgb(112,166,195)" stroke-width="1" width="19.382mm" x="79.22mm" y="117.731mm" /><text fill="white" font-family="Century Gothic" text-anchor="middle" x="88.911mm" y="121.809mm">source_1</text><line stroke="rgb(67,67,67)" x1="88.911mm" x2="88.911mm" y1="123.873mm" y2="128.731mm" /><line stroke="rgb(67,67,67)" x1="88.77mm" x2="90.37mm" y1="128.59mm" y2="128.59mm" /><rect fill="rgb(210,131,37)" height="6mm" rx="2" ry="2" stroke="rgb(233, 185, 128)" stroke-width="1" width="16.562mm" x="90.511mm" y="125.59mm" /><text fill="white" font-family="Century Gothic" text-anchor="middle" x="98.792mm" y="129.668mm">energy</text><text fill="black" font-family="Century Gothic" x="109.573mm" y="129.668mm">1.282e-15 (J) (8 keV)</text><line stroke="rgb(67,67,67)" x1="77.62mm" x2="77.62mm" y1="108.155mm" y2="136.59mm" /><line stroke="rgb(67,67,67)" x1="77.479mm" x2="79.079mm" y1="136.449mm" y2="136.449mm" /><rect fill="rgb(29,97,134)" height="6mm" rx="2" ry="2" stroke="rgb(112,166,195)" stroke-width="1" width="23.048mm" x="79.22mm" y="133.449mm" /><text fill="white" font-family="Century Gothic" text-anchor="middle" x="90.744mm" y="137.527mm">detector_1</text><text fill="black" font-family="Century Gothic" x="104.768mm" y="137.527mm">CSPAD Detector</text><line stroke="rgb(67,67,67)" x1="90.744mm" x2="90.744mm" y1="139.591mm" y2="144.449mm" /><line stroke="rgb(67,67,67)" x1="90.603mm" x2="92.203mm" y1="144.308mm" y2="144.308mm" /><rect fill="rgb(210,131,37)" height="6mm" rx="2" ry="2" stroke="rgb(233, 185, 128)" stroke-width="1" width="19.1mm" x="92.344mm" y="141.308mm" /><text fill="white" font-family="Century Gothic" text-anchor="middle" x="101.894mm" y="145.386mm">distance</text><text fill="black" font-family="Century Gothic" x="113.944mm" y="145.386mm">0.45 (m)</text><line stroke="rgb(67,67,67)" x1="90.744mm" x2="90.744mm" y1="139.591mm" y2="152.308mm" /><line stroke="rgb(67,67,67)" x1="90.603mm" x2="92.203mm" y1="152.167mm" y2="152.167mm" /><rect fill="rgb(64,73,78)" height="6.0mm" rx="2" ry="2" stroke="rgb(104,132,150)" stroke-width="1" width="10.332mm" x="93.626mm" y="154.744mm" /><text fill="white" font-family="Century Gothic" text-anchor="middle" x="98.792mm" y="158.822mm">axes</text><text fill="black" font-family="Century Gothic" x="106.458mm" y="158.822mm">module_identifier:y:x</text><rect fill="rgb(210,131,37)" height="6mm" rx="2" ry="2" stroke="rgb(233, 185, 128)" stroke-width="1" width="13.178mm" x="92.344mm" y="149.167mm" /><text fill="white" font-family="Century Gothic" text-anchor="middle" x="98.933mm" y="153.245mm">data</text><text fill="black" font-family="Century Gothic" x="108.022mm" y="153.245mm">Image stack with size 64 x 185 x 194</text><line stroke="rgb(67,67,67)" x1="90.744mm" x2="90.744mm" y1="139.591mm" y2="165.744mm" /><line stroke="rgb(67,67,67)" x1="90.603mm" x2="92.203mm" y1="165.603mm" y2="165.603mm" /><rect fill="rgb(210,131,37)" height="6mm" rx="2" ry="2" stroke="rgb(233, 185, 128)" stroke-width="1" width="33.482mm" x="92.344mm" y="162.603mm" /><text fill="white" font-family="Century Gothic" text-anchor="middle" x="109.085mm" y="166.681mm">module_identifier</text><text fill="black" font-family="Century Gothic" x="128.326mm" y="166.681mm">Stack of 64 strings with the names of the modules</text><line stroke="rgb(67,67,67)" x1="90.744mm" x2="90.744mm" y1="139.591mm" y2="173.603mm" /><line stroke="rgb(67,67,67)" x1="90.603mm" x2="92.203mm" y1="173.462mm" y2="173.462mm" /><rect fill="rgb(64,73,78)" height="6.0mm" rx="2" ry="2" stroke="rgb(104,132,150)" stroke-width="1" width="10.332mm" x="102.791mm" y="176.039mm" /><text fill="white" font-family="Century Gothic" text-anchor="middle" x="107.957mm" y="180.117mm">axes</text><text fill="black" font-family="Century Gothic" x="115.623mm" y="180.117mm">module_identifier:coordinate</text><rect fill="rgb(210,131,37)" height="6mm" rx="2" ry="2" stroke="rgb(233, 185, 128)" stroke-width="1" width="31.508mm" x="92.344mm" y="170.462mm" /><text fill="white" font-family="Century Gothic" text-anchor="middle" x="108.098mm" y="174.54mm">corner_positions</text><text fill="black" font-family="Century Gothic" x="126.352mm" y="174.54mm">64 x 3 array of module corner positions</text><line stroke="rgb(67,67,67)" x1="90.744mm" x2="90.744mm" y1="139.591mm" y2="187.039mm" /><line stroke="rgb(67,67,67)" x1="90.603mm" x2="92.203mm" y1="186.898mm" y2="186.898mm" /><rect fill="rgb(64,73,78)" height="6.0mm" rx="2" ry="2" stroke="rgb(104,132,150)" stroke-width="1" width="10.332mm" x="100.253mm" y="189.475mm" /><text fill="white" font-family="Century Gothic" text-anchor="middle" x="105.419mm" y="193.553mm">axes</text><text fill="black" font-family="Century Gothic" x="113.085mm" y="193.553mm">module_identifier:dimension:coordinate</text><rect fill="rgb(210,131,37)" height="6mm" rx="2" ry="2" stroke="rgb(233, 185, 128)" stroke-width="1" width="26.432mm" x="92.344mm" y="183.898mm" /><text fill="white" font-family="Century Gothic" text-anchor="middle" x="105.56mm" y="187.976mm">basis_vectors</text><text fill="black" font-family="Century Gothic" x="121.276mm" y="187.976mm">64 x 2 x 3 array of module basis vectors</text></svg>